HIERARCHY
ROOT Hips
{
	OFFSET -0.001795 -0.223333 0.028219
	CHANNELS 6 Xposition Yposition Zposition Zrotation Yrotation Xrotation 
	JOINT LeftUpLeg
	{
		OFFSET 0.069520 -0.091406 -0.006815
		CHANNELS 3 Zrotation Yrotation Xrotation
		JOINT LeftLeg
		{
			OFFSET 0.034277 -0.375199 -0.004496
			CHANNELS 3 Zrotation Yrotation Xrotation
			JOINT LeftFoot
			{
				OFFSET -0.013596 -0.397961 -0.043693
				CHANNELS 3 Zrotation Yrotation Xrotation
				JOINT LeftToe
				{
					OFFSET 0.026358 -0.055791 0.119288
					CHANNELS 3 Zrotation Yrotation Xrotation
					End Site
					{
						OFFSET 0.000000 0.000000 0.000000
					}
				}
			}
		}
	}
	JOINT RightUpLeg
	{
		OFFSET -0.067670 -0.090522 -0.004320
		CHANNELS 3 Zrotation Yrotation Xrotation
		JOINT RightLeg
		{
			OFFSET -0.038290 -0.382569 -0.008850
			CHANNELS 3 Zrotation Yrotation Xrotation
			JOINT RightFoot
			{
				OFFSET 0.015774 -0.398415 -0.042312
				CHANNELS 3 Zrotation Yrotation Xrotation
				JOINT RightToe
				{
					OFFSET -0.025372 -0.048144 0.123348
					CHANNELS 3 Zrotation Yrotation Xrotation
					End Site
					{
						OFFSET 0.000000 0.000000 0.000000
					}
				}
			}
		}
	}
	JOINT Spine
	{
		OFFSET -0.002533 0.108963 -0.026696
		CHANNELS 3 Zrotation Yrotation Xrotation
		JOINT Spine1
		{
			OFFSET 0.005487 0.135180 0.001092
			CHANNELS 3 Zrotation Yrotation Xrotation
			JOINT Spine2
			{
				OFFSET 0.001457 0.052922 0.025425
				CHANNELS 3 Zrotation Yrotation Xrotation
				JOINT Neck
				{
					OFFSET -0.002778 0.213870 -0.042857
					CHANNELS 3 Zrotation Yrotation Xrotation
					JOINT Head
					{
						OFFSET 0.005152 0.064970 0.051349
						CHANNELS 3 Zrotation Yrotation Xrotation
						End Site
						{
							OFFSET 0.000000 0.000000 0.000000
						}
					}
				}
				JOINT LeftShoulder
				{
					OFFSET 0.078845 0.121749 -0.034090
					CHANNELS 3 Zrotation Yrotation Xrotation
					JOINT LeftArm
					{
						OFFSET 0.090977 0.030469 -0.008868
						CHANNELS 3 Zrotation Yrotation Xrotation
						JOINT LeftForeArm
						{
							OFFSET 0.259612 -0.012772 -0.027456
							CHANNELS 3 Zrotation Yrotation Xrotation
							JOINT LeftHand
							{
								OFFSET 0.249234 0.008986 -0.001171
								CHANNELS 3 Zrotation Yrotation Xrotation
								End Site
								{
									OFFSET 0.000000 0.000000 0.000000
								}
							}
						}
					}
				}
				JOINT RightShoulder
				{
					OFFSET -0.081759 0.118833 -0.038615
					CHANNELS 3 Zrotation Yrotation Xrotation
					JOINT RightArm
					{
						OFFSET -0.096012 0.032551 -0.009143
						CHANNELS 3 Zrotation Yrotation Xrotation
						JOINT RightForeArm
						{
							OFFSET -0.253742 -0.013329 -0.021401
							CHANNELS 3 Zrotation Yrotation Xrotation
							JOINT RightHand
							{
								OFFSET -0.255298 0.007772 -0.005559
								CHANNELS 3 Zrotation Yrotation Xrotation
								End Site
								{
									OFFSET 0.000000 0.000000 0.000000
								}
							}
						}
					}
				}
			}
		}
	}
}
MOTION
Frames: 17
Frame Time: 0.050000
-0.007443 0.916568 -0.023106 -3.474184 -0.914345 -6.326542 13.820932 0.412988 -11.491947 -8.464731 2.240119 30.945014 8.891834 18.570719 10.327399 0.000000 0.000000 0.000000 -1.713617 0.977749 -11.104587 5.566075 -0.784405 24.067716 -4.967618 -13.547718 6.704006 0.000000 0.000000 0.000000 3.158554 -1.730012 25.467510 -6.605898 2.560470 -16.603847 -1.849618 4.946506 30.876022 13.071414 -8.148988 -15.929726 0.000000 0.000000 0.000000 -8.672953 -15.899054 5.835548 -33.118997 -24.614012 0.227588 96.734100 -67.546015 -70.183658 0.000000 0.000000 0.000000 19.940944 4.820890 2.956515 28.563984 44.918526 4.559750 -93.767441 67.989040 -63.903332 0.000000 0.000000 0.000000 
-0.007367 0.914545 -0.023079 -3.274158 -0.838334 -6.675233 13.578254 0.389156 -11.302766 -8.606661 2.296550 31.202061 8.796046 18.385423 9.457551 0.000000 0.000000 0.000000 -1.846397 0.991272 -11.423196 5.498131 -0.774194 25.308914 -5.125965 -13.805158 6.319424 0.000000 0.000000 0.000000 3.270974 -1.733674 25.192436 -6.769531 2.603780 -16.953695 -2.036062 5.212031 31.241074 13.379063 -8.448334 -15.695536 0.000000 0.000000 0.000000 -9.092166 -15.848217 5.802238 -33.928637 -23.191901 -0.097297 95.934705 -69.209065 -71.205796 0.000000 0.000000 0.000000 19.289242 4.676152 2.918390 27.436111 46.072131 4.484574 -96.723707 65.475163 -63.968436 0.000000 0.000000 0.000000 
-0.007442 0.912784 -0.022904 -3.264547 -0.823568 -6.870271 13.624575 0.386632 -10.883045 -8.721372 2.332779 31.100008 8.733369 18.262267 8.906442 0.000000 0.000000 0.000000 -1.704737 0.999007 -11.370449 5.346820 -0.727780 25.983039 -5.019149 -13.455158 5.521461 0.000000 0.000000 0.000000 3.228562 -1.682578 24.622545 -6.605943 2.556777 -16.881543 -2.286293 5.187807 30.961791 13.194523 -8.632982 -14.416056 0.000000 0.000000 0.000000 -9.794056 -16.067703 5.932243 -35.087225 -21.503892 -0.460986 84.565771 -71.315736 -62.674197 0.000000 0.000000 0.000000 18.994970 4.934281 3.027185 26.299503 48.163202 4.630060 -99.671143 62.405037 -63.463061 0.000000 0.000000 0.000000 
-0.007525 0.911587 -0.022897 -3.166978 -0.839463 -7.190315 13.713351 0.392908 -10.437583 -8.694557 2.316067 31.002167 8.369860 17.667910 8.769051 0.000000 0.000000 0.000000 -1.680540 1.009889 -11.480017 5.098294 -0.641093 26.564412 -4.930242 -13.275854 5.582873 0.000000 0.000000 0.000000 3.318095 -1.674709 24.330952 -6.819536 2.622851 -17.052911 -2.602070 4.879656 30.812637 13.078016 -8.729285 -13.921815 0.000000 0.000000 0.000000 -10.201441 -16.616772 6.227985 -36.390836 -20.280215 -0.746587 68.397955 -72.352522 -49.292610 0.000000 0.000000 0.000000 18.585158 4.870347 2.892474 25.928946 49.913153 4.923178 -103.399171 60.720732 -65.155455 0.000000 0.000000 0.000000 
-0.007469 0.910936 -0.023118 -3.177441 -0.961439 -7.534023 13.859409 0.406411 -9.895236 -8.912927 2.417109 31.091692 8.471251 17.802975 8.302095 0.000000 0.000000 0.000000 -1.631605 0.997529 -11.289217 5.031205 -0.606848 26.973390 -4.868792 -13.103418 5.313759 0.000000 0.000000 0.000000 3.035811 -1.616315 24.452199 -6.623067 2.538108 -17.652639 -3.078864 4.694034 31.046078 13.239733 -8.910026 -13.900432 0.000000 0.000000 0.000000 -10.008220 -17.096823 6.455452 -38.349147 -19.502658 -0.961434 52.831238 -72.067200 -36.127537 0.000000 0.000000 0.000000 18.253704 4.597845 2.670640 25.702267 51.769153 5.265052 -105.719756 59.574335 -66.144531 0.000000 0.000000 0.000000 
-0.007239 0.910909 -0.023579 -3.070801 -1.027487 -7.572675 13.895647 0.401858 -9.499214 -9.091263 2.473751 30.579761 8.317178 17.547054 8.242068 0.000000 0.000000 0.000000 -1.890002 0.978431 -11.345024 5.130753 -0.633477 26.795037 -4.907459 -13.200522 5.389199 0.000000 0.000000 0.000000 3.365700 -1.663248 24.257485 -7.224634 2.722269 -17.761078 -3.400880 4.303088 30.768657 13.020969 -8.851186 -13.632380 0.000000 0.000000 0.000000 -10.538121 -17.069764 6.542681 -39.415020 -18.775394 -1.149472 40.870760 -71.437489 -26.354332 0.000000 0.000000 0.000000 17.739771 4.302913 2.388980 26.212556 52.490510 5.666143 -109.702670 60.120444 -70.706673 0.000000 0.000000 0.000000 
-0.006894 0.911286 -0.024126 -2.900707 -1.068966 -7.492907 13.728090 0.374513 -9.110082 -9.127803 2.463902 29.863147 8.523088 17.871036 8.024204 0.000000 0.000000 0.000000 -2.030713 0.959472 -11.274978 4.962586 -0.567497 26.595806 -4.764376 -12.879059 5.260436 0.000000 0.000000 0.000000 3.346729 -1.643647 24.101264 -7.405928 2.766317 -17.974281 -3.707823 4.129614 30.722764 12.850107 -8.730687 -13.624941 0.000000 0.000000 0.000000 -10.901950 -16.930605 6.547965 -40.318858 -18.309057 -1.290264 34.664812 -70.709074 -21.290481 0.000000 0.000000 0.000000 17.278488 3.891295 2.106152 26.686510 53.101450 6.016833 -112.670735 61.319614 -75.117230 0.000000 0.000000 0.000000 
-0.006593 0.912287 -0.024848 -2.685304 -1.203426 -7.453750 13.582565 0.349856 -8.508441 -9.232782 2.472841 28.827906 8.337958 17.587336 8.380129 0.000000 0.000000 0.000000 -2.152626 0.937292 -11.131380 5.035866 -0.577283 26.070032 -4.702759 -12.750359 5.224721 0.000000 0.000000 0.000000 3.616196 -1.669825 23.887861 -7.951880 2.904946 -18.590672 -4.016263 3.842963 30.997298 12.779835 -8.710036 -13.769587 0.000000 0.000000 0.000000 -11.009528 -16.605448 6.489117 -41.018018 -17.989226 -1.437653 30.579064 -69.711167 -17.771301 0.000000 0.000000 0.000000 16.949845 3.505343 1.818740 27.717957 53.555907 6.526267 -115.010017 63.505689 -80.152269 0.000000 0.000000 0.000000 
-0.006540 0.913346 -0.025823 -2.516215 -1.342364 -7.308116 13.495844 0.334550 -8.123677 -9.326139 2.466946 27.643041 8.520321 17.904434 8.843079 0.000000 0.000000 0.000000 -2.211079 0.917217 -10.937024 4.998198 -0.551125 25.283131 -4.697270 -12.722843 5.095991 0.000000 0.000000 0.000000 3.699461 -1.658362 23.617797 -8.255042 2.991864 -18.569499 -4.160206 3.577292 30.898010 12.475614 -8.429954 -14.046409 0.000000 0.000000 0.000000 -11.221547 -16.558233 6.543092 -41.315707 -18.008575 -1.425550 29.640513 -68.114108 -16.479475 0.000000 0.000000 0.000000 16.724066 3.609129 1.789324 28.224493 54.147101 6.895455 -115.874439 65.084461 -83.001846 0.000000 0.000000 0.000000 
-0.006845 0.913974 -0.026868 -2.323867 -1.426601 -6.906366 13.560127 0.335585 -8.263861 -9.453658 2.499302 27.061526 8.409044 17.747320 9.327127 0.000000 0.000000 0.000000 -2.416661 0.915950 -11.111481 5.019203 -0.549574 24.529585 -4.630913 -12.563888 4.962705 0.000000 0.000000 0.000000 3.787060 -1.655374 23.387894 -8.336750 3.011078 -18.517458 -4.594169 3.449815 30.798162 12.703864 -8.450803 -14.684830 0.000000 0.000000 0.000000 -11.234386 -16.764256 6.669752 -41.304018 -18.335433 -1.306613 28.905898 -65.767230 -15.230668 0.000000 0.000000 0.000000 16.635226 3.499345 1.683967 27.828826 55.281031 7.021580 -115.818906 65.420002 -83.442232 0.000000 0.000000 0.000000 
-0.007537 0.914360 -0.027790 -2.211040 -1.475321 -6.636584 13.513528 0.332174 -8.479071 -9.621779 2.545487 26.616701 8.533060 17.949605 9.464643 0.000000 0.000000 0.000000 -2.447862 0.935498 -11.360559 4.938489 -0.517819 24.426705 -4.627745 -12.564024 4.976319 0.000000 0.000000 0.000000 4.043237 -1.690214 23.217376 -8.499354 3.060395 -18.470905 -5.006688 3.254456 30.730038 12.943483 -8.532646 -15.201850 0.000000 0.000000 0.000000 -11.232484 -17.104897 6.857459 -41.144438 -18.609680 -1.208092 28.500395 -63.509055 -14.288255 0.000000 0.000000 0.000000 16.436278 3.642737 1.698213 26.568858 56.567585 6.776927 -113.865742 65.004289 -81.128367 0.000000 0.000000 0.000000 
-0.008434 0.914645 -0.028280 -2.111319 -1.449891 -6.159040 13.611184 0.330207 -8.679560 -9.816907 2.581126 25.985641 8.507256 17.927322 9.825333 0.000000 0.000000 0.000000 -2.426173 0.957102 -11.573323 4.831932 -0.486329 23.739688 -4.472052 -12.223312 4.918045 0.000000 0.000000 0.000000 4.237064 -1.701668 22.804314 -8.494949 3.061651 -18.290196 -5.562673 3.181803 30.492332 12.968498 -8.470414 -15.411147 0.000000 0.000000 0.000000 -11.397324 -17.471693 7.044609 -40.802829 -18.822508 -1.103535 28.248381 -61.490830 -13.615694 0.000000 0.000000 0.000000 16.455125 3.792282 1.751859 25.081724 57.939867 6.422858 -111.449968 63.605024 -77.147301 0.000000 0.000000 0.000000 
-0.009429 0.915061 -0.028451 -2.042310 -1.362393 -5.885361 13.490093 0.310032 -8.739463 -9.749899 2.524825 25.517846 8.557704 18.007524 9.746432 0.000000 0.000000 0.000000 -2.410371 0.981138 -11.843830 4.542893 -0.398892 23.876060 -4.321015 -11.911125 4.978084 0.000000 0.000000 0.000000 4.512731 -1.748562 22.635208 -8.450287 3.049622 -18.175985 -5.797589 3.116177 30.452687 13.128662 -8.570767 -15.517127 0.000000 0.000000 0.000000 -11.426138 -18.081483 7.320122 -40.586205 -19.055746 -1.018010 29.818493 -59.682223 -14.069478 0.000000 0.000000 0.000000 16.309747 3.958289 1.830648 22.553067 58.911708 5.412285 -109.264409 61.008381 -72.148008 0.000000 0.000000 0.000000 
-0.010296 0.915633 -0.028308 -2.034791 -1.389453 -5.511772 13.493060 0.305611 -8.931040 -9.775291 2.525204 25.260374 8.716892 18.281881 10.312781 0.000000 0.000000 0.000000 -2.175431 1.029616 -12.133374 4.252895 -0.303451 23.847325 -4.232237 -11.741148 5.054501 0.000000 0.000000 0.000000 4.785270 -1.782510 22.367156 -8.277180 3.000805 -17.962111 -6.026134 3.167942 30.401588 13.421697 -8.564647 -16.323044 0.000000 0.000000 0.000000 -11.546227 -18.388885 7.468522 -40.356629 -19.686769 -0.805918 30.645128 -58.705067 -14.288273 0.000000 0.000000 0.000000 16.146681 3.923999 1.814325 19.715408 60.194848 4.249129 -107.447129 58.033807 -67.118868 0.000000 0.000000 0.000000 
-0.010983 0.916274 -0.028032 -1.989595 -1.244000 -5.195570 13.454118 0.295267 -9.251906 -9.845795 2.540740 25.304304 8.721467 18.302194 10.471041 0.000000 0.000000 0.000000 -2.167336 1.053902 -12.415536 4.237881 -0.309854 23.819339 -4.300756 -11.921896 5.239040 0.000000 0.000000 0.000000 5.136393 -1.839577 22.128334 -8.226615 2.991878 -17.805282 -6.186463 3.105898 30.553028 13.660023 -8.568696 -17.048693 0.000000 0.000000 0.000000 -11.509665 -18.732634 7.621366 -39.882183 -20.231141 -0.652652 31.884550 -58.238281 -14.884180 0.000000 0.000000 0.000000 15.983508 3.789371 1.749285 17.121364 60.510012 2.973793 -106.585686 55.247154 -63.254621 0.000000 0.000000 0.000000 
-0.011394 0.916547 -0.027678 -1.960266 -1.091002 -4.780058 13.479712 0.289321 -9.670593 -10.005904 2.580546 25.246736 8.902138 18.600997 10.721722 0.000000 0.000000 0.000000 -2.156139 1.093208 -12.867480 4.140228 -0.286738 24.129946 -4.202253 -11.724181 5.318091 0.000000 0.000000 0.000000 5.405608 -1.877970 21.843567 -7.963293 2.926928 -17.448583 -6.330542 3.239305 30.557204 14.003229 -8.587775 -17.796944 0.000000 0.000000 0.000000 -11.495593 -18.952608 7.688459 -39.578953 -20.810170 -0.471893 33.551917 -58.523724 -15.989317 0.000000 0.000000 0.000000 15.973121 3.510464 1.647670 14.352283 60.807166 1.618267 -105.754113 52.342893 -59.244318 0.000000 0.000000 0.000000 
-0.011537 0.916820 -0.027399 -1.861737 -0.726979 -4.598419 13.349196 0.270552 -10.212228 -10.031033 2.578874 25.668414 8.916680 18.647419 10.918402 0.000000 0.000000 0.000000 -2.370043 1.095919 -13.214645 4.221441 -0.339219 24.473710 -4.328503 -12.002436 5.449976 0.000000 0.000000 0.000000 5.785766 -1.986524 22.047040 -7.874224 2.908633 -17.368754 -6.457557 3.323052 30.629157 14.010474 -8.505084 -18.006012 0.000000 0.000000 0.000000 -11.490106 -19.185340 7.743999 -39.604798 -21.594618 -0.222589 35.188079 -59.387763 -17.289427 0.000000 0.000000 0.000000 15.660428 3.199348 1.543885 12.441501 60.851048 0.679173 -104.509518 49.833946 -55.303740 0.000000 0.000000 0.000000 
